<mxfile host="app.diagrams.net" agent="Mozilla/5.0 (X11; Linux x86_64) AppleWebKit/537.36 (KHTML, like Gecko) Chrome/131.0.0.0 Safari/537.36" version="26.0.4">
  <diagram name="Page-1" id="qsV2s4hs_2FrfZJGvVU3">
    <mxGraphModel dx="1838" dy="1045" grid="1" gridSize="10" guides="1" tooltips="1" connect="1" arrows="1" fold="1" page="1" pageScale="1" pageWidth="827" pageHeight="1169" math="0" shadow="0">
      <root>
        <mxCell id="0" />
        <mxCell id="1" parent="0" />
        <mxCell id="-YBQGZOib8_rkUtJKQvK-69" value="" style="rounded=0;whiteSpace=wrap;html=1;" parent="1" vertex="1">
          <mxGeometry x="1421" y="40" width="679" height="720" as="geometry" />
        </mxCell>
        <mxCell id="-YBQGZOib8_rkUtJKQvK-67" value="" style="rounded=0;whiteSpace=wrap;html=1;" parent="1" vertex="1">
          <mxGeometry x="1421" y="780" width="679" height="720" as="geometry" />
        </mxCell>
        <mxCell id="-YBQGZOib8_rkUtJKQvK-45" value="&amp;nbsp;" style="rounded=0;whiteSpace=wrap;html=1;" parent="1" vertex="1">
          <mxGeometry x="380" y="540" width="685" height="210" as="geometry" />
        </mxCell>
        <mxCell id="-YBQGZOib8_rkUtJKQvK-7" style="edgeStyle=orthogonalEdgeStyle;rounded=0;orthogonalLoop=1;jettySize=auto;html=1;exitX=1;exitY=0.25;exitDx=0;exitDy=0;entryX=0;entryY=0.25;entryDx=0;entryDy=0;fillColor=#d5e8d4;strokeColor=#82b366;strokeWidth=4;" parent="1" source="-YBQGZOib8_rkUtJKQvK-13" target="-YBQGZOib8_rkUtJKQvK-19" edge="1">
          <mxGeometry relative="1" as="geometry" />
        </mxCell>
        <mxCell id="-YBQGZOib8_rkUtJKQvK-8" value="+" style="edgeLabel;html=1;align=center;verticalAlign=middle;resizable=0;points=[];" parent="-YBQGZOib8_rkUtJKQvK-7" vertex="1" connectable="0">
          <mxGeometry x="-0.7381" y="-1" relative="1" as="geometry">
            <mxPoint as="offset" />
          </mxGeometry>
        </mxCell>
        <mxCell id="-YBQGZOib8_rkUtJKQvK-9" value="B+" style="edgeLabel;html=1;align=center;verticalAlign=middle;resizable=0;points=[];" parent="-YBQGZOib8_rkUtJKQvK-7" vertex="1" connectable="0">
          <mxGeometry x="0.7286" y="-1" relative="1" as="geometry">
            <mxPoint as="offset" />
          </mxGeometry>
        </mxCell>
        <mxCell id="-YBQGZOib8_rkUtJKQvK-10" style="edgeStyle=orthogonalEdgeStyle;rounded=0;orthogonalLoop=1;jettySize=auto;html=1;exitX=1;exitY=0.75;exitDx=0;exitDy=0;entryX=0;entryY=0.75;entryDx=0;entryDy=0;fillColor=#d5e8d4;strokeColor=#82b366;strokeWidth=4;" parent="1" source="-YBQGZOib8_rkUtJKQvK-13" target="-YBQGZOib8_rkUtJKQvK-19" edge="1">
          <mxGeometry relative="1" as="geometry" />
        </mxCell>
        <mxCell id="-YBQGZOib8_rkUtJKQvK-11" value="-" style="edgeLabel;html=1;align=center;verticalAlign=middle;resizable=0;points=[];" parent="-YBQGZOib8_rkUtJKQvK-10" vertex="1" connectable="0">
          <mxGeometry x="-0.7286" y="-2" relative="1" as="geometry">
            <mxPoint as="offset" />
          </mxGeometry>
        </mxCell>
        <mxCell id="-YBQGZOib8_rkUtJKQvK-12" value="B-" style="edgeLabel;html=1;align=center;verticalAlign=middle;resizable=0;points=[];" parent="-YBQGZOib8_rkUtJKQvK-10" vertex="1" connectable="0">
          <mxGeometry x="0.6714" y="-1" relative="1" as="geometry">
            <mxPoint as="offset" />
          </mxGeometry>
        </mxCell>
        <mxCell id="-YBQGZOib8_rkUtJKQvK-13" value="18650 x2 series" style="rounded=0;whiteSpace=wrap;html=1;" parent="1" vertex="1">
          <mxGeometry x="430" y="670" width="120" height="60" as="geometry" />
        </mxCell>
        <mxCell id="-YBQGZOib8_rkUtJKQvK-14" style="edgeStyle=orthogonalEdgeStyle;rounded=0;orthogonalLoop=1;jettySize=auto;html=1;exitX=1;exitY=0.25;exitDx=0;exitDy=0;entryX=0;entryY=0.25;entryDx=0;entryDy=0;fillColor=#d5e8d4;strokeColor=#82b366;strokeWidth=4;" parent="1" source="-YBQGZOib8_rkUtJKQvK-19" target="-YBQGZOib8_rkUtJKQvK-27" edge="1">
          <mxGeometry relative="1" as="geometry">
            <mxPoint x="1442.2399999999998" y="684.6800000000001" as="targetPoint" />
            <Array as="points">
              <mxPoint x="1230" y="685" />
              <mxPoint x="1230" y="675" />
            </Array>
          </mxGeometry>
        </mxCell>
        <mxCell id="-YBQGZOib8_rkUtJKQvK-15" value="P+" style="edgeLabel;html=1;align=center;verticalAlign=middle;resizable=0;points=[];" parent="-YBQGZOib8_rkUtJKQvK-14" vertex="1" connectable="0">
          <mxGeometry x="-0.6714" relative="1" as="geometry">
            <mxPoint x="-90" as="offset" />
          </mxGeometry>
        </mxCell>
        <mxCell id="-YBQGZOib8_rkUtJKQvK-54" value="P+" style="edgeLabel;html=1;align=center;verticalAlign=middle;resizable=0;points=[];" parent="-YBQGZOib8_rkUtJKQvK-14" vertex="1" connectable="0">
          <mxGeometry x="-0.9566" y="-1" relative="1" as="geometry">
            <mxPoint as="offset" />
          </mxGeometry>
        </mxCell>
        <mxCell id="-YBQGZOib8_rkUtJKQvK-17" style="edgeStyle=orthogonalEdgeStyle;rounded=0;orthogonalLoop=1;jettySize=auto;html=1;exitX=1;exitY=0.75;exitDx=0;exitDy=0;entryX=0;entryY=0.5;entryDx=0;entryDy=0;fillColor=#d5e8d4;strokeColor=#82b366;strokeWidth=4;" parent="1" target="-YBQGZOib8_rkUtJKQvK-38" edge="1">
          <mxGeometry relative="1" as="geometry">
            <mxPoint x="790" y="714.52" as="sourcePoint" />
            <mxPoint x="910" y="714.52" as="targetPoint" />
          </mxGeometry>
        </mxCell>
        <mxCell id="-YBQGZOib8_rkUtJKQvK-18" value="P-" style="edgeLabel;html=1;align=center;verticalAlign=middle;resizable=0;points=[];" parent="-YBQGZOib8_rkUtJKQvK-17" vertex="1" connectable="0">
          <mxGeometry x="-0.6333" y="1" relative="1" as="geometry">
            <mxPoint x="-16" y="1" as="offset" />
          </mxGeometry>
        </mxCell>
        <mxCell id="-YBQGZOib8_rkUtJKQvK-19" value="BMS" style="rounded=0;whiteSpace=wrap;html=1;" parent="1" vertex="1">
          <mxGeometry x="670" y="670" width="120" height="60" as="geometry" />
        </mxCell>
        <mxCell id="-YBQGZOib8_rkUtJKQvK-20" style="edgeStyle=orthogonalEdgeStyle;rounded=0;orthogonalLoop=1;jettySize=auto;html=1;exitX=0;exitY=0.75;exitDx=0;exitDy=0;strokeWidth=4;fillColor=#d5e8d4;strokeColor=#82b366;" parent="1" source="-YBQGZOib8_rkUtJKQvK-24" edge="1">
          <mxGeometry relative="1" as="geometry">
            <mxPoint x="820" y="715" as="targetPoint" />
            <mxPoint x="890" y="600" as="sourcePoint" />
            <Array as="points">
              <mxPoint x="910" y="600" />
              <mxPoint x="821" y="600" />
              <mxPoint x="821" y="715" />
            </Array>
          </mxGeometry>
        </mxCell>
        <mxCell id="-YBQGZOib8_rkUtJKQvK-21" value="&amp;nbsp;-&amp;nbsp;" style="edgeLabel;html=1;align=center;verticalAlign=middle;resizable=0;points=[];" parent="-YBQGZOib8_rkUtJKQvK-20" vertex="1" connectable="0">
          <mxGeometry x="-0.8049" y="-1" relative="1" as="geometry">
            <mxPoint as="offset" />
          </mxGeometry>
        </mxCell>
        <mxCell id="-YBQGZOib8_rkUtJKQvK-22" style="edgeStyle=orthogonalEdgeStyle;rounded=0;orthogonalLoop=1;jettySize=auto;html=1;exitX=-0.017;exitY=0.326;exitDx=0;exitDy=0;exitPerimeter=0;strokeWidth=4;fillColor=#d5e8d4;strokeColor=#82b366;" parent="1" source="-YBQGZOib8_rkUtJKQvK-24" edge="1">
          <mxGeometry relative="1" as="geometry">
            <mxPoint x="810" y="685" as="targetPoint" />
            <mxPoint x="890" y="570" as="sourcePoint" />
          </mxGeometry>
        </mxCell>
        <mxCell id="-YBQGZOib8_rkUtJKQvK-23" value="&amp;nbsp;+&amp;nbsp;" style="edgeLabel;html=1;align=center;verticalAlign=middle;resizable=0;points=[];" parent="-YBQGZOib8_rkUtJKQvK-22" vertex="1" connectable="0">
          <mxGeometry x="-0.8129" relative="1" as="geometry">
            <mxPoint as="offset" />
          </mxGeometry>
        </mxCell>
        <mxCell id="-YBQGZOib8_rkUtJKQvK-24" value="USB-C charger" style="rounded=0;whiteSpace=wrap;html=1;" parent="1" vertex="1">
          <mxGeometry x="930" y="550" width="120" height="60" as="geometry" />
        </mxCell>
        <mxCell id="-YBQGZOib8_rkUtJKQvK-27" value="UBEC" style="rounded=0;whiteSpace=wrap;html=1;fillColor=#d5e8d4;strokeColor=#82b366;" parent="1" vertex="1">
          <mxGeometry x="1460" y="660" width="120" height="60" as="geometry" />
        </mxCell>
        <mxCell id="-YBQGZOib8_rkUtJKQvK-28" style="edgeStyle=orthogonalEdgeStyle;rounded=0;orthogonalLoop=1;jettySize=auto;html=1;exitX=0;exitY=0.25;exitDx=0;exitDy=0;entryX=0.921;entryY=0.007;entryDx=0;entryDy=0;entryPerimeter=0;fillColor=#d5e8d4;strokeColor=#82b366;strokeWidth=4;" parent="1" source="-YBQGZOib8_rkUtJKQvK-13" target="-YBQGZOib8_rkUtJKQvK-19" edge="1">
          <mxGeometry relative="1" as="geometry" />
        </mxCell>
        <mxCell id="-YBQGZOib8_rkUtJKQvK-29" value="BM" style="edgeLabel;html=1;align=center;verticalAlign=middle;resizable=0;points=[];" parent="-YBQGZOib8_rkUtJKQvK-28" vertex="1" connectable="0">
          <mxGeometry x="0.8678" y="2" relative="1" as="geometry">
            <mxPoint as="offset" />
          </mxGeometry>
        </mxCell>
        <mxCell id="-YBQGZOib8_rkUtJKQvK-30" value="Between the two cells" style="edgeLabel;html=1;align=center;verticalAlign=middle;resizable=0;points=[];" parent="-YBQGZOib8_rkUtJKQvK-28" vertex="1" connectable="0">
          <mxGeometry x="-0.9577" y="-1" relative="1" as="geometry">
            <mxPoint x="20" y="-24" as="offset" />
          </mxGeometry>
        </mxCell>
        <mxCell id="-YBQGZOib8_rkUtJKQvK-32" value="Raspberry pi zero 2W" style="rounded=1;whiteSpace=wrap;html=1;fillColor=#e1d5e7;strokeColor=#9673a6;" parent="1" vertex="1">
          <mxGeometry x="1520" y="310" width="340" height="140" as="geometry" />
        </mxCell>
        <mxCell id="-YBQGZOib8_rkUtJKQvK-33" value="7.4V" style="text;html=1;align=center;verticalAlign=middle;whiteSpace=wrap;rounded=0;" parent="1" vertex="1">
          <mxGeometry x="580" y="685" width="60" height="30" as="geometry" />
        </mxCell>
        <mxCell id="-YBQGZOib8_rkUtJKQvK-34" value="7.4V out" style="text;html=1;align=center;verticalAlign=middle;whiteSpace=wrap;rounded=0;" parent="1" vertex="1">
          <mxGeometry x="1070" y="685" width="60" height="30" as="geometry" />
        </mxCell>
        <mxCell id="-YBQGZOib8_rkUtJKQvK-36" style="edgeStyle=orthogonalEdgeStyle;rounded=0;orthogonalLoop=1;jettySize=auto;html=1;exitX=1;exitY=0.5;exitDx=0;exitDy=0;entryX=0;entryY=0.75;entryDx=0;entryDy=0;fillColor=#d5e8d4;strokeColor=#82b366;strokeWidth=4;" parent="1" source="-YBQGZOib8_rkUtJKQvK-38" target="-YBQGZOib8_rkUtJKQvK-27" edge="1">
          <mxGeometry relative="1" as="geometry">
            <mxPoint x="900" y="715" as="targetPoint" />
            <Array as="points">
              <mxPoint x="1240" y="715" />
              <mxPoint x="1240" y="705" />
            </Array>
          </mxGeometry>
        </mxCell>
        <mxCell id="-YBQGZOib8_rkUtJKQvK-43" value="micro usb" style="rounded=1;whiteSpace=wrap;html=1;" parent="1" vertex="1">
          <mxGeometry x="1659.9" y="430" width="60.1" height="30" as="geometry" />
        </mxCell>
        <mxCell id="-YBQGZOib8_rkUtJKQvK-44" value="micro usb" style="rounded=1;whiteSpace=wrap;html=1;" parent="1" vertex="1">
          <mxGeometry x="1559.9" y="430" width="60.1" height="30" as="geometry" />
        </mxCell>
        <mxCell id="-YBQGZOib8_rkUtJKQvK-46" value="&lt;font style=&quot;font-size: 18px;&quot;&gt;Battery pack&lt;/font&gt;" style="text;html=1;align=center;verticalAlign=middle;whiteSpace=wrap;rounded=0;" parent="1" vertex="1">
          <mxGeometry x="360" y="540" width="170" height="30" as="geometry" />
        </mxCell>
        <mxCell id="-YBQGZOib8_rkUtJKQvK-47" value="usb-c" style="rounded=1;whiteSpace=wrap;html=1;" parent="1" vertex="1">
          <mxGeometry x="1040" y="560" width="40" height="40" as="geometry" />
        </mxCell>
        <mxCell id="-YBQGZOib8_rkUtJKQvK-48" value="Motor control board" style="whiteSpace=wrap;html=1;aspect=fixed;fillColor=#d5e8d4;strokeColor=#82b366;" parent="1" vertex="1">
          <mxGeometry x="1460" y="800" width="160" height="160" as="geometry" />
        </mxCell>
        <mxCell id="-YBQGZOib8_rkUtJKQvK-49" value="" style="rounded=1;whiteSpace=wrap;html=1;" parent="1" vertex="1">
          <mxGeometry x="1590" y="830" width="20" height="40" as="geometry" />
        </mxCell>
        <mxCell id="-YBQGZOib8_rkUtJKQvK-50" value="" style="rounded=1;whiteSpace=wrap;html=1;" parent="1" vertex="1">
          <mxGeometry x="1590" y="890" width="20" height="40" as="geometry" />
        </mxCell>
        <mxCell id="-YBQGZOib8_rkUtJKQvK-51" value="usb-c" style="rounded=1;whiteSpace=wrap;html=1;" parent="1" vertex="1">
          <mxGeometry x="1440" y="820" width="40" height="40" as="geometry" />
        </mxCell>
        <mxCell id="-YBQGZOib8_rkUtJKQvK-52" value="7.4V DC in" style="shape=process;whiteSpace=wrap;html=1;backgroundOutline=1;" parent="1" vertex="1">
          <mxGeometry x="1440" y="900" width="80" height="40" as="geometry" />
        </mxCell>
        <mxCell id="-YBQGZOib8_rkUtJKQvK-53" value="" style="endArrow=classic;html=1;rounded=0;entryX=0;entryY=1;entryDx=0;entryDy=0;fillColor=#d5e8d4;strokeColor=#82b366;strokeWidth=4;dashed=1;" parent="1" target="-YBQGZOib8_rkUtJKQvK-52" edge="1">
          <mxGeometry width="50" height="50" relative="1" as="geometry">
            <mxPoint x="1320" y="710" as="sourcePoint" />
            <mxPoint x="840" y="890" as="targetPoint" />
            <Array as="points">
              <mxPoint x="1320" y="940" />
            </Array>
          </mxGeometry>
        </mxCell>
        <mxCell id="-YBQGZOib8_rkUtJKQvK-55" value="" style="endArrow=classic;html=1;rounded=0;entryX=0.009;entryY=0.154;entryDx=0;entryDy=0;entryPerimeter=0;fillColor=#d5e8d4;strokeColor=#82b366;strokeWidth=4;dashed=1;" parent="1" target="-YBQGZOib8_rkUtJKQvK-52" edge="1">
          <mxGeometry width="50" height="50" relative="1" as="geometry">
            <mxPoint x="1340" y="670" as="sourcePoint" />
            <mxPoint x="1470" y="905" as="targetPoint" />
            <Array as="points">
              <mxPoint x="1340" y="905" />
            </Array>
          </mxGeometry>
        </mxCell>
        <mxCell id="-YBQGZOib8_rkUtJKQvK-60" value="" style="endArrow=none;html=1;rounded=0;entryX=0.5;entryY=1;entryDx=0;entryDy=0;exitX=0;exitY=0.5;exitDx=0;exitDy=0;strokeColor=#9673a6;strokeWidth=4;fillColor=#e1d5e7;dashed=1;" parent="1" source="-YBQGZOib8_rkUtJKQvK-51" target="-YBQGZOib8_rkUtJKQvK-43" edge="1">
          <mxGeometry width="50" height="50" relative="1" as="geometry">
            <mxPoint x="1430" y="680" as="sourcePoint" />
            <mxPoint x="1480" y="630" as="targetPoint" />
            <Array as="points">
              <mxPoint x="1370" y="840" />
              <mxPoint x="1370" y="510" />
              <mxPoint x="1690" y="510" />
            </Array>
          </mxGeometry>
        </mxCell>
        <mxCell id="-YBQGZOib8_rkUtJKQvK-61" value="IMU" style="rounded=1;whiteSpace=wrap;html=1;fillColor=#e1d5e7;strokeColor=#9673a6;" parent="1" vertex="1">
          <mxGeometry x="1460" y="1000" width="120" height="90" as="geometry" />
        </mxCell>
        <mxCell id="-YBQGZOib8_rkUtJKQvK-68" value="&lt;font style=&quot;font-size: 24px;&quot;&gt;Body&lt;/font&gt;" style="text;html=1;align=center;verticalAlign=middle;whiteSpace=wrap;rounded=0;" parent="1" vertex="1">
          <mxGeometry x="2030" y="790" width="60" height="30" as="geometry" />
        </mxCell>
        <mxCell id="-YBQGZOib8_rkUtJKQvK-70" value="&lt;font style=&quot;font-size: 24px;&quot;&gt;Head&lt;/font&gt;" style="text;html=1;align=center;verticalAlign=middle;whiteSpace=wrap;rounded=0;" parent="1" vertex="1">
          <mxGeometry x="2030" y="60" width="60" height="30" as="geometry" />
        </mxCell>
        <mxCell id="-YBQGZOib8_rkUtJKQvK-72" value="" style="endArrow=none;html=1;rounded=0;exitX=0;exitY=0.5;exitDx=0;exitDy=0;entryX=0.129;entryY=-0.018;entryDx=0;entryDy=0;entryPerimeter=0;strokeColor=#9673a6;strokeWidth=4;fillColor=#e1d5e7;dashed=1;" parent="1" source="-YBQGZOib8_rkUtJKQvK-61" target="-YBQGZOib8_rkUtJKQvK-32" edge="1">
          <mxGeometry width="50" height="50" relative="1" as="geometry">
            <mxPoint x="1860" y="850" as="sourcePoint" />
            <mxPoint x="1910" y="800" as="targetPoint" />
            <Array as="points">
              <mxPoint x="1280" y="1045" />
              <mxPoint x="1280" y="270" />
              <mxPoint x="1564" y="270" />
            </Array>
          </mxGeometry>
        </mxCell>
        <mxCell id="-YBQGZOib8_rkUtJKQvK-73" value="&lt;font style=&quot;font-size: 18px;&quot;&gt;Left leg&lt;/font&gt;" style="rounded=1;whiteSpace=wrap;html=1;fillColor=#dae8fc;strokeColor=#6c8ebf;" parent="1" vertex="1">
          <mxGeometry x="1750" y="960" width="90" height="450" as="geometry" />
        </mxCell>
        <mxCell id="-YBQGZOib8_rkUtJKQvK-74" value="&lt;font style=&quot;font-size: 18px;&quot;&gt;Right leg&lt;/font&gt;" style="rounded=1;whiteSpace=wrap;html=1;fillColor=#dae8fc;strokeColor=#6c8ebf;" parent="1" vertex="1">
          <mxGeometry x="1970" y="960" width="90" height="450" as="geometry" />
        </mxCell>
        <mxCell id="-YBQGZOib8_rkUtJKQvK-75" value="&lt;font style=&quot;font-size: 18px;&quot;&gt;Neck&lt;/font&gt;" style="rounded=1;whiteSpace=wrap;html=1;fillColor=#dae8fc;strokeColor=#6c8ebf;" parent="1" vertex="1">
          <mxGeometry x="1970" y="190" width="90" height="450" as="geometry" />
        </mxCell>
        <mxCell id="-YBQGZOib8_rkUtJKQvK-76" value="" style="endArrow=none;html=1;rounded=0;strokeWidth=4;fillColor=#1ba1e2;strokeColor=#006EAF;entryX=0.5;entryY=0;entryDx=0;entryDy=0;" parent="1" source="-YBQGZOib8_rkUtJKQvK-49" target="-YBQGZOib8_rkUtJKQvK-73" edge="1">
          <mxGeometry width="50" height="50" relative="1" as="geometry">
            <mxPoint x="1840" y="890" as="sourcePoint" />
            <mxPoint x="1890" y="840" as="targetPoint" />
            <Array as="points">
              <mxPoint x="1795" y="850" />
            </Array>
          </mxGeometry>
        </mxCell>
        <mxCell id="-YBQGZOib8_rkUtJKQvK-77" value="" style="endArrow=none;html=1;rounded=0;strokeWidth=4;fillColor=#1ba1e2;strokeColor=#006EAF;entryX=0.5;entryY=0;entryDx=0;entryDy=0;" parent="1" target="-YBQGZOib8_rkUtJKQvK-74" edge="1">
          <mxGeometry width="50" height="50" relative="1" as="geometry">
            <mxPoint x="1610" y="910" as="sourcePoint" />
            <mxPoint x="1795" y="1020" as="targetPoint" />
            <Array as="points">
              <mxPoint x="2015" y="910" />
            </Array>
          </mxGeometry>
        </mxCell>
        <mxCell id="-YBQGZOib8_rkUtJKQvK-81" value="" style="endArrow=none;html=1;rounded=0;exitX=1;exitY=0.5;exitDx=0;exitDy=0;entryX=0.844;entryY=0.015;entryDx=0;entryDy=0;entryPerimeter=0;strokeWidth=4;fillColor=#d5e8d4;strokeColor=#82b366;" parent="1" source="-YBQGZOib8_rkUtJKQvK-27" target="-YBQGZOib8_rkUtJKQvK-32" edge="1">
          <mxGeometry width="50" height="50" relative="1" as="geometry">
            <mxPoint x="1885" y="615" as="sourcePoint" />
            <mxPoint x="1935" y="565" as="targetPoint" />
            <Array as="points">
              <mxPoint x="1920" y="690" />
              <mxPoint x="1920" y="270" />
              <mxPoint x="1807" y="270" />
            </Array>
          </mxGeometry>
        </mxCell>
        <mxCell id="-YBQGZOib8_rkUtJKQvK-82" value="5V out" style="edgeLabel;html=1;align=center;verticalAlign=middle;resizable=0;points=[];" parent="-YBQGZOib8_rkUtJKQvK-81" vertex="1" connectable="0">
          <mxGeometry x="-0.9226" y="4" relative="1" as="geometry">
            <mxPoint y="4" as="offset" />
          </mxGeometry>
        </mxCell>
        <mxCell id="-YBQGZOib8_rkUtJKQvK-84" value="&lt;font style=&quot;font-size: 18px;&quot;&gt;Antenna 1&lt;/font&gt;" style="rounded=1;whiteSpace=wrap;html=1;fillColor=#dae8fc;strokeColor=#6c8ebf;" parent="1" vertex="1">
          <mxGeometry x="1790" y="70" width="110" height="80" as="geometry" />
        </mxCell>
        <mxCell id="-YBQGZOib8_rkUtJKQvK-85" value="&lt;font style=&quot;font-size: 18px;&quot;&gt;Antenna 1&lt;/font&gt;" style="rounded=1;whiteSpace=wrap;html=1;fillColor=#dae8fc;strokeColor=#6c8ebf;" parent="1" vertex="1">
          <mxGeometry x="1910" y="70" width="110" height="80" as="geometry" />
        </mxCell>
        <mxCell id="-YBQGZOib8_rkUtJKQvK-86" value="" style="endArrow=none;html=1;rounded=0;exitX=0.721;exitY=0.008;exitDx=0;exitDy=0;exitPerimeter=0;entryX=0.675;entryY=1.016;entryDx=0;entryDy=0;fillColor=#e1d5e7;strokeColor=#9673a6;strokeWidth=4;entryPerimeter=0;" parent="1" source="-YBQGZOib8_rkUtJKQvK-32" target="-YBQGZOib8_rkUtJKQvK-84" edge="1">
          <mxGeometry width="50" height="50" relative="1" as="geometry">
            <mxPoint x="1820" y="600" as="sourcePoint" />
            <mxPoint x="1870" y="550" as="targetPoint" />
            <Array as="points">
              <mxPoint x="1780" y="230" />
              <mxPoint x="1890" y="220" />
            </Array>
          </mxGeometry>
        </mxCell>
        <mxCell id="-YBQGZOib8_rkUtJKQvK-87" value="" style="endArrow=none;html=1;rounded=0;exitX=0.773;exitY=0.008;exitDx=0;exitDy=0;exitPerimeter=0;entryX=0.5;entryY=1;entryDx=0;entryDy=0;fillColor=#e1d5e7;strokeColor=#9673a6;strokeWidth=4;" parent="1" source="-YBQGZOib8_rkUtJKQvK-32" target="-YBQGZOib8_rkUtJKQvK-85" edge="1">
          <mxGeometry width="50" height="50" relative="1" as="geometry">
            <mxPoint x="1790" y="309" as="sourcePoint" />
            <mxPoint x="1793" y="150" as="targetPoint" />
            <Array as="points">
              <mxPoint x="1790" y="240" />
              <mxPoint x="1900" y="240" />
              <mxPoint x="1920" y="170" />
            </Array>
          </mxGeometry>
        </mxCell>
        <mxCell id="-YBQGZOib8_rkUtJKQvK-88" value="switch" style="rounded=1;whiteSpace=wrap;html=1;fillColor=#e1d5e7;strokeColor=#9673a6;" parent="1" vertex="1">
          <mxGeometry x="1750" y="1410" width="90" height="30" as="geometry" />
        </mxCell>
        <mxCell id="-YBQGZOib8_rkUtJKQvK-90" value="switch" style="rounded=1;whiteSpace=wrap;html=1;fillColor=#e1d5e7;strokeColor=#9673a6;" parent="1" vertex="1">
          <mxGeometry x="1970" y="1410" width="90" height="30" as="geometry" />
        </mxCell>
        <mxCell id="-YBQGZOib8_rkUtJKQvK-91" value="" style="endArrow=none;html=1;rounded=0;exitX=0.5;exitY=1;exitDx=0;exitDy=0;entryX=0.205;entryY=-0.001;entryDx=0;entryDy=0;entryPerimeter=0;fillColor=#e1d5e7;strokeColor=#9673a6;strokeWidth=4;dashed=1;" parent="1" source="-YBQGZOib8_rkUtJKQvK-88" target="-YBQGZOib8_rkUtJKQvK-32" edge="1">
          <mxGeometry width="50" height="50" relative="1" as="geometry">
            <mxPoint x="1660" y="1000" as="sourcePoint" />
            <mxPoint x="1710" y="950" as="targetPoint" />
            <Array as="points">
              <mxPoint x="1795" y="1460" />
              <mxPoint x="1160" y="1460" />
              <mxPoint x="1160" y="200" />
              <mxPoint x="1590" y="200" />
            </Array>
          </mxGeometry>
        </mxCell>
        <mxCell id="-YBQGZOib8_rkUtJKQvK-92" value="" style="endArrow=none;html=1;rounded=0;exitX=0.5;exitY=1;exitDx=0;exitDy=0;entryX=0.25;entryY=0;entryDx=0;entryDy=0;fillColor=#e1d5e7;strokeColor=#9673a6;strokeWidth=4;dashed=1;" parent="1" target="-YBQGZOib8_rkUtJKQvK-32" edge="1">
          <mxGeometry width="50" height="50" relative="1" as="geometry">
            <mxPoint x="2015" y="1440" as="sourcePoint" />
            <mxPoint x="1810" y="310" as="targetPoint" />
            <Array as="points">
              <mxPoint x="2015" y="1480" />
              <mxPoint x="1180" y="1480" />
              <mxPoint x="1180" y="210" />
              <mxPoint x="1605" y="210" />
            </Array>
          </mxGeometry>
        </mxCell>
        <mxCell id="-YBQGZOib8_rkUtJKQvK-93" value="&lt;span style=&quot;font-size: 18px;&quot;&gt;flashlight&lt;/span&gt;" style="rounded=1;whiteSpace=wrap;html=1;fillColor=#dae8fc;strokeColor=#6c8ebf;" parent="1" vertex="1">
          <mxGeometry x="1549.9" y="70" width="110" height="80" as="geometry" />
        </mxCell>
        <mxCell id="-YBQGZOib8_rkUtJKQvK-94" value="" style="endArrow=none;html=1;rounded=0;exitX=0.721;exitY=0.008;exitDx=0;exitDy=0;exitPerimeter=0;entryX=0.675;entryY=1.016;entryDx=0;entryDy=0;fillColor=#e1d5e7;strokeColor=#9673a6;strokeWidth=4;entryPerimeter=0;" parent="1" edge="1">
          <mxGeometry width="50" height="50" relative="1" as="geometry">
            <mxPoint x="1654" y="310" as="sourcePoint" />
            <mxPoint x="1653" y="150" as="targetPoint" />
            <Array as="points">
              <mxPoint x="1654" y="169" />
            </Array>
          </mxGeometry>
        </mxCell>
        <mxCell id="-YBQGZOib8_rkUtJKQvK-95" value="" style="rounded=0;whiteSpace=wrap;html=1;" parent="1" vertex="1">
          <mxGeometry x="947.5" y="730" width="15" height="40" as="geometry" />
        </mxCell>
        <mxCell id="-YBQGZOib8_rkUtJKQvK-38" value="power switch" style="whiteSpace=wrap;html=1;aspect=fixed;" parent="1" vertex="1">
          <mxGeometry x="930" y="690" width="50" height="50" as="geometry" />
        </mxCell>
        <mxCell id="vN0w1t6Y51rWQMxhLmNh-1" value="&lt;span style=&quot;font-size: 18px;&quot;&gt;Speaker&lt;/span&gt;" style="rounded=1;whiteSpace=wrap;html=1;fillColor=#dae8fc;strokeColor=#6c8ebf;" parent="1" vertex="1">
          <mxGeometry x="1429.8" y="110" width="110" height="40" as="geometry" />
        </mxCell>
        <mxCell id="vN0w1t6Y51rWQMxhLmNh-2" value="" style="endArrow=none;html=1;rounded=0;exitX=0.326;exitY=0.012;exitDx=0;exitDy=0;exitPerimeter=0;entryX=0.75;entryY=1;entryDx=0;entryDy=0;fillColor=#e1d5e7;strokeColor=#9673a6;strokeWidth=4;" parent="1" source="-YBQGZOib8_rkUtJKQvK-32" target="vN0w1t6Y51rWQMxhLmNh-1" edge="1">
          <mxGeometry width="50" height="50" relative="1" as="geometry">
            <mxPoint x="1664" y="320" as="sourcePoint" />
            <mxPoint x="1663" y="160" as="targetPoint" />
            <Array as="points">
              <mxPoint x="1630" y="170" />
              <mxPoint x="1512" y="170" />
            </Array>
          </mxGeometry>
        </mxCell>
        <mxCell id="QuHCFTCMFr1V1-7T-APS-1" value="&lt;span style=&quot;font-size: 18px;&quot;&gt;Camera&lt;/span&gt;" style="rounded=1;whiteSpace=wrap;html=1;fillColor=#dae8fc;strokeColor=#6c8ebf;" parent="1" vertex="1">
          <mxGeometry x="1430" y="330" width="80" height="100" as="geometry" />
        </mxCell>
        <mxCell id="QuHCFTCMFr1V1-7T-APS-3" value="&lt;span style=&quot;font-size: 18px;&quot;&gt;Eye LED&lt;/span&gt;" style="rounded=1;whiteSpace=wrap;html=1;fillColor=#dae8fc;strokeColor=#6c8ebf;" parent="1" vertex="1">
          <mxGeometry x="1670" y="80" width="50" height="40" as="geometry" />
        </mxCell>
        <mxCell id="QuHCFTCMFr1V1-7T-APS-5" value="&lt;span style=&quot;font-size: 18px;&quot;&gt;Eye LED&lt;/span&gt;" style="rounded=1;whiteSpace=wrap;html=1;fillColor=#dae8fc;strokeColor=#6c8ebf;" parent="1" vertex="1">
          <mxGeometry x="1730" y="80" width="50" height="40" as="geometry" />
        </mxCell>
        <mxCell id="QuHCFTCMFr1V1-7T-APS-6" value="" style="endArrow=none;html=1;rounded=0;exitX=0.5;exitY=0;exitDx=0;exitDy=0;entryX=0.5;entryY=1;entryDx=0;entryDy=0;fillColor=#e1d5e7;strokeColor=#9673a6;strokeWidth=4;" parent="1" source="-YBQGZOib8_rkUtJKQvK-32" target="QuHCFTCMFr1V1-7T-APS-3" edge="1">
          <mxGeometry width="50" height="50" relative="1" as="geometry">
            <mxPoint x="1664" y="320" as="sourcePoint" />
            <mxPoint x="1663" y="160" as="targetPoint" />
            <Array as="points" />
          </mxGeometry>
        </mxCell>
        <mxCell id="QuHCFTCMFr1V1-7T-APS-7" value="" style="endArrow=none;html=1;rounded=0;exitX=0.5;exitY=0;exitDx=0;exitDy=0;entryX=0.5;entryY=1;entryDx=0;entryDy=0;fillColor=#e1d5e7;strokeColor=#9673a6;strokeWidth=4;" parent="1" edge="1">
          <mxGeometry width="50" height="50" relative="1" as="geometry">
            <mxPoint x="1745" y="310" as="sourcePoint" />
            <mxPoint x="1750" y="120" as="targetPoint" />
            <Array as="points" />
          </mxGeometry>
        </mxCell>
        <mxCell id="QuHCFTCMFr1V1-7T-APS-8" value="" style="endArrow=none;html=1;rounded=0;exitX=1;exitY=0.5;exitDx=0;exitDy=0;entryX=0;entryY=0.5;entryDx=0;entryDy=0;fillColor=#e1d5e7;strokeColor=#9673a6;strokeWidth=4;" parent="1" source="QuHCFTCMFr1V1-7T-APS-1" target="-YBQGZOib8_rkUtJKQvK-32" edge="1">
          <mxGeometry width="50" height="50" relative="1" as="geometry">
            <mxPoint x="1700" y="320" as="sourcePoint" />
            <mxPoint x="1705" y="130" as="targetPoint" />
            <Array as="points" />
          </mxGeometry>
        </mxCell>
        <mxCell id="49t0Fgb0Qvd13kqSiM8I-1" value="&lt;span style=&quot;font-size: 18px;&quot;&gt;Mic&lt;/span&gt;" style="rounded=1;whiteSpace=wrap;html=1;fillColor=#dae8fc;strokeColor=#6c8ebf;" parent="1" vertex="1">
          <mxGeometry x="1429.8" y="70" width="110" height="40" as="geometry" />
        </mxCell>
        <mxCell id="9v2C5uotGtLQ3AJdS-sX-1" value="" style="endArrow=none;html=1;rounded=0;strokeWidth=4;fillColor=#1ba1e2;strokeColor=#006EAF;entryX=0.5;entryY=1;entryDx=0;entryDy=0;dashed=1;" edge="1" parent="1" target="-YBQGZOib8_rkUtJKQvK-75">
          <mxGeometry width="50" height="50" relative="1" as="geometry">
            <mxPoint x="1790" y="1410" as="sourcePoint" />
            <mxPoint x="2220" y="710" as="targetPoint" />
            <Array as="points">
              <mxPoint x="1900" y="1410" />
              <mxPoint x="1900" y="720" />
              <mxPoint x="2015" y="720" />
            </Array>
          </mxGeometry>
        </mxCell>
      </root>
    </mxGraphModel>
  </diagram>
</mxfile>
